HIERARCHY
ROOT Hips
{
	OFFSET -0.001795 -0.223333 0.028219
	CHANNELS 6 Xposition Yposition Zposition Zrotation Yrotation Xrotation 
	JOINT LeftUpLeg
	{
		OFFSET 0.069520 -0.091406 -0.006815
		CHANNELS 3 Zrotation Yrotation Xrotation
		JOINT LeftLeg
		{
			OFFSET 0.034277 -0.375199 -0.004496
			CHANNELS 3 Zrotation Yrotation Xrotation
			JOINT LeftFoot
			{
				OFFSET -0.013596 -0.397961 -0.043693
				CHANNELS 3 Zrotation Yrotation Xrotation
				JOINT LeftToe
				{
					OFFSET 0.026358 -0.055791 0.119288
					CHANNELS 3 Zrotation Yrotation Xrotation
					End Site
					{
						OFFSET 0.000000 0.000000 0.000000
					}
				}
			}
		}
	}
	JOINT RightUpLeg
	{
		OFFSET -0.067670 -0.090522 -0.004320
		CHANNELS 3 Zrotation Yrotation Xrotation
		JOINT RightLeg
		{
			OFFSET -0.038290 -0.382569 -0.008850
			CHANNELS 3 Zrotation Yrotation Xrotation
			JOINT RightFoot
			{
				OFFSET 0.015774 -0.398415 -0.042312
				CHANNELS 3 Zrotation Yrotation Xrotation
				JOINT RightToe
				{
					OFFSET -0.025372 -0.048144 0.123348
					CHANNELS 3 Zrotation Yrotation Xrotation
					End Site
					{
						OFFSET 0.000000 0.000000 0.000000
					}
				}
			}
		}
	}
	JOINT Spine
	{
		OFFSET -0.002533 0.108963 -0.026696
		CHANNELS 3 Zrotation Yrotation Xrotation
		JOINT Spine1
		{
			OFFSET 0.005487 0.135180 0.001092
			CHANNELS 3 Zrotation Yrotation Xrotation
			JOINT Spine2
			{
				OFFSET 0.001457 0.052922 0.025425
				CHANNELS 3 Zrotation Yrotation Xrotation
				JOINT Neck
				{
					OFFSET -0.002778 0.213870 -0.042857
					CHANNELS 3 Zrotation Yrotation Xrotation
					JOINT Head
					{
						OFFSET 0.005152 0.064970 0.051349
						CHANNELS 3 Zrotation Yrotation Xrotation
						End Site
						{
							OFFSET 0.000000 0.000000 0.000000
						}
					}
				}
				JOINT LeftShoulder
				{
					OFFSET 0.078845 0.121749 -0.034090
					CHANNELS 3 Zrotation Yrotation Xrotation
					JOINT LeftArm
					{
						OFFSET 0.090977 0.030469 -0.008868
						CHANNELS 3 Zrotation Yrotation Xrotation
						JOINT LeftForeArm
						{
							OFFSET 0.259612 -0.012772 -0.027456
							CHANNELS 3 Zrotation Yrotation Xrotation
							JOINT LeftHand
							{
								OFFSET 0.249234 0.008986 -0.001171
								CHANNELS 3 Zrotation Yrotation Xrotation
								End Site
								{
									OFFSET 0.000000 0.000000 0.000000
								}
							}
						}
					}
				}
				JOINT RightShoulder
				{
					OFFSET -0.081759 0.118833 -0.038615
					CHANNELS 3 Zrotation Yrotation Xrotation
					JOINT RightArm
					{
						OFFSET -0.096012 0.032551 -0.009143
						CHANNELS 3 Zrotation Yrotation Xrotation
						JOINT RightForeArm
						{
							OFFSET -0.253742 -0.013329 -0.021401
							CHANNELS 3 Zrotation Yrotation Xrotation
							JOINT RightHand
							{
								OFFSET -0.255298 0.007772 -0.005559
								CHANNELS 3 Zrotation Yrotation Xrotation
								End Site
								{
									OFFSET 0.000000 0.000000 0.000000
								}
							}
						}
					}
				}
			}
		}
	}
}
MOTION
Frames: 5
Frame Time: 0.050000
0.045402 0.802865 -0.071485 -4.265944 -57.679757 17.054294 17.929351 10.449458 -26.830428 10.341345 11.879876 62.135653 3.298194 6.115791 -12.918645 0.000000 0.000000 0.000000 -35.713893 9.260291 -58.689312 43.622444 -5.482758 33.218331 -19.861600 -46.867681 14.031577 0.000000 0.000000 0.000000 4.178972 0.646022 19.855410 5.802329 -2.040004 -8.071864 -5.951428 -1.786082 3.422167 9.232449 -4.153010 -35.610291 0.000000 0.000000 0.000000 -4.306124 -19.233545 11.186510 -27.715842 -46.603889 8.401827 83.987416 -56.152390 -37.597829 0.000000 0.000000 0.000000 4.633397 17.788731 2.721887 28.801295 18.778619 2.205410 -103.927733 71.089229 -98.135447 0.000000 0.000000 0.000000 
0.040501 0.786326 -0.072093 -6.542853 -60.640056 19.520204 18.833952 11.745720 -26.720291 15.165765 10.967239 66.969536 1.984771 2.660440 -9.334918 0.000000 0.000000 0.000000 -38.402595 10.032991 -61.610821 48.778493 -5.989432 31.133519 -22.756315 -50.768744 16.638719 0.000000 0.000000 0.000000 5.946556 0.855335 22.194143 7.431613 -2.359654 -10.002533 -5.657536 -7.676599 4.359740 7.553096 -3.868683 -37.508409 0.000000 0.000000 0.000000 2.663724 -23.040269 10.809356 -16.317577 -50.228578 6.832537 76.192622 -33.316618 -15.332166 0.000000 0.000000 0.000000 2.006536 20.021151 3.201592 27.780741 22.807917 2.575352 -105.405214 65.412049 -99.060873 0.000000 0.000000 0.000000 
0.032595 0.773535 -0.071856 -8.548983 -63.624447 21.843507 19.666278 11.943528 -24.529999 16.856952 11.813081 68.369416 1.727166 1.866576 -10.850665 0.000000 0.000000 0.000000 -39.416524 11.061089 -63.985390 50.548397 -5.667989 30.091333 -23.446218 -53.469294 15.563872 0.000000 0.000000 0.000000 6.494463 1.266833 23.881088 7.984535 -2.370168 -11.650380 -4.621410 -10.607669 5.556029 5.717576 -3.702086 -37.835728 0.000000 0.000000 0.000000 8.250212 -24.649851 9.271835 -7.242165 -50.163521 4.794720 76.586791 -20.199368 -5.426397 0.000000 0.000000 0.000000 0.979788 20.894308 3.207575 26.772850 24.576645 2.479821 -111.908938 61.085402 -104.870574 0.000000 0.000000 0.000000 
0.023542 0.762912 -0.070860 -12.441142 -67.081957 26.371923 20.390694 12.800594 -23.483592 20.163987 11.794217 70.839607 0.673291 0.014374 -6.652562 0.000000 0.000000 0.000000 -40.603181 12.408498 -67.097185 53.643920 -5.540224 28.996916 -25.198475 -56.945453 15.600562 0.000000 0.000000 0.000000 7.602247 1.663197 25.462795 8.022840 -2.268118 -12.549334 -4.237963 -12.664594 5.770064 5.073805 -3.543826 -39.092270 0.000000 0.000000 0.000000 12.631182 -25.850173 8.029868 0.346671 -47.196236 2.706808 78.728225 -10.492463 2.627729 0.000000 0.000000 0.000000 -0.388723 22.190983 3.536979 26.935220 26.477034 2.473119 -115.623689 57.234516 -108.354497 0.000000 0.000000 0.000000 
0.013924 0.755127 -0.069551 -14.800360 -68.794612 29.911494 20.283953 12.539433 -22.370915 20.787865 12.707452 71.073493 0.878451 0.625788 -6.217862 0.000000 0.000000 0.000000 -42.770327 12.749397 -69.135609 56.218632 -5.541572 27.258306 -26.569363 -59.239771 16.093609 0.000000 0.000000 0.000000 8.418085 1.891593 26.433844 8.504433 -2.227542 -13.482597 -4.016346 -14.524528 6.184939 4.705740 -3.403822 -40.096316 0.000000 0.000000 0.000000 14.954762 -25.891485 7.236390 5.908211 -44.895888 1.395394 80.372668 -5.253812 7.596264 0.000000 0.000000 0.000000 -1.016090 22.892724 3.594168 25.504286 27.723985 2.152765 -115.311939 54.394307 -106.204390 0.000000 0.000000 0.000000 
